<?xml version="1.0" standalone="no"?>
<!DOCTYPE svg PUBLIC "-//W3C//DTD SVG 20010904//EN"
 "http://www.w3.org/TR/2001/REC-SVG-20010904/DTD/svg10.dtd">
<svg version="1.0" xmlns="http://www.w3.org/2000/svg"
 width="800.000000pt" height="800.000000pt" viewBox="0 0 800.000000 800.000000"
 preserveAspectRatio="xMidYMid meet">

<g transform="translate(0.000000,800.000000) scale(0.100000,-0.100000)"
fill="#000000" stroke="none">
<path d="M2 6048 c1 -1074 3 -1926 5 -1893 50 1091 525 2105 1314 2809 673
601 1484 950 2372 1021 l87 7 0 -812 0 -813 103 7 c114 7 333 -7 477 -29 627
-101 1187 -461 1559 -1005 86 -125 152 -247 220 -408 68 -160 95 -246 112
-365 6 -45 15 -87 19 -92 20 -25 42 -342 37 -515 -8 -237 -2 -226 -89 -179
-211 116 -621 463 -802 679 -109 129 -206 294 -247 415 -7 22 -20 47 -28 56
-18 18 -143 61 -660 229 -190 62 -424 141 -520 176 -96 35 -176 64 -178 64 -2
0 -3 -398 -3 -884 l0 -884 51 -31 c305 -188 682 -324 1064 -383 190 -29 608
-32 789 -5 100 15 424 75 504 93 22 4 23 3 17 -28 -13 -61 -96 -262 -150 -366
-221 -417 -582 -762 -1028 -981 -172 -85 -296 -131 -471 -176 -214 -55 -334
-69 -569 -70 l-207 0 0 -839 0 -838 -82 7 c-960 80 -1838 480 -2508 1144 -696
690 -1121 1625 -1179 2596 -5 84 -9 -646 -10 -1807 l-1 -1948 4000 0 4000 0 0
4000 0 4000 -4000 0 -4000 0 2 -1952z"/>
<path d="M5292 4875 c7 -8 222 -75 226 -71 4 4 -207 76 -222 76 -5 0 -7 -2 -4
-5z"/>
<path d="M5532 4795 c8 -9 251 -95 255 -91 4 3 -242 96 -254 96 -4 0 -4 -2 -1
-5z"/>
<path d="M5820 4685 c14 -8 30 -14 35 -14 6 0 -1 6 -15 14 -14 8 -29 14 -35
14 -5 0 1 -6 15 -14z"/>
<path d="M5877 4659 c7 -7 15 -10 18 -7 3 3 -2 9 -12 12 -14 6 -15 5 -6 -5z"/>
<path d="M5930 4635 c14 -8 30 -14 35 -14 6 0 -1 6 -15 14 -14 8 -29 14 -35
14 -5 0 1 -6 15 -14z"/>
<path d="M6000 4605 c14 -8 30 -14 35 -14 6 0 -1 6 -15 14 -14 8 -29 14 -35
14 -5 0 1 -6 15 -14z"/>
<path d="M6160 4525 c0 -2 18 -14 40 -25 22 -11 40 -18 40 -15 0 2 -18 14 -40
25 -22 11 -40 18 -40 15z"/>
</g>
</svg>
